<?xml version="1.0" encoding="utf-8"?>
<!-- Generator: Adobe Illustrator 22.0.0, SVG Export Plug-In . SVG Version: 6.00 Build 0)  -->
<svg version="1.1" id="Layer_1" xmlns="http://www.w3.org/2000/svg" xmlns:xlink="http://www.w3.org/1999/xlink" x="0px" y="0px"
     viewBox="0 0 626.3 217.2" style="enable-background:new 0 0 626.3 217.2;" xml:space="preserve">
<style type="text/css">
    .st0{fill:#2B3990;}
    .st1{fill:#59A4CC;}
</style>
<g>
    <g>
        <path class="st0" d="M348.4,211.2c18.8-4,35.9-14.5,47.2-30.1c3.1-4.3,5.8-8.9,7.9-13.7c6-10.3,9.5-21.8,7-33.9
            c-0.5-2.2-1.1-4.4-1.9-6.5c-0.2-0.9-0.3-1.7-0.5-2.6c-0.7-7.9-3.1-15.6-8-22.1c-3.9-5.1-9-9.3-14.5-12.7c-1.8-2.4-3.9-4.6-6.3-6.6
            c-5.6-4.4-12.4-6.7-19.4-8.2c-12.4-6.2-26.4-9.1-40.3-8.8c-10,0.2-20.2,2.4-28.6,8.2c-7.2,5-12.7,12.2-16.5,20.1
            c-1,2.1-1.8,4.2-2.5,6.3c-1.6,2-3,4.1-4.3,6.3c-9.7,16.3-10.8,37.3-1,53.8c3.6,6.1,8.1,11.9,13.4,17c0.6,1,1.3,2,1.9,3
            c2.9,7.8,6.6,15.9,12.5,21.5c6.7,6.5,16.2,9.1,25.2,10.2C329.3,213.8,339,213.3,348.4,211.2 M354.2,200.4c2.5-0.9,4.9-1.9,7.3-3
            c2.1-1,4.2-2.1,6.2-3.2c3-0.6,6-1.3,8.9-2.1c1.3-0.3,0.8-2.4-0.6-2c-1,0.3-2,0.5-3.1,0.7c12.5-8.5,22.8-20.2,29-33.9
            c2.4-5.4,4.3-11.4,5.4-17.5c-0.1,8.4-1.9,16.8-5,24.6c-2.7,5.2-6.1,10.2-9.9,14.8c-5.7,6.9-11.9,14.4-20.1,18.5
            C366.8,200,360.5,200.6,354.2,200.4 M273.9,101.7c6.8-8.5,16-15,26.1-19.2c-3.2,1.9-6.3,4.1-9.2,6.2c-7.8,5.9-13.2,13.4-16.2,22.7
            c-4.7,14.8-4.6,30.8,1.1,45c0.7,4.5,1.6,8.9,2.8,13.3c-0.8-1.9-1.6-3.8-2.2-5.8c-3-9.5-4.7-19.7-5.5-29.7
            c-0.8-10.5-0.4-21.3,2.7-31.4C273.6,102.5,273.8,102.1,273.9,101.7 M340.3,74c5.9,0.4,12.1,1.1,18.1,2.5c2.3,1.1,4.5,2.4,6.7,3.7
            c-3.5-1.1-7-2-10.6-2.7c-9.4-2.3-19.2-3.4-28.8-2.9C330.5,73.9,335.3,73.7,340.3,74 M343.8,195.4c-5.1,0.4-10.3,0.7-15.6,0.7
            c-13.9-3.9-27.1-10.4-37.4-20.8c-5.7-5.8-10.1-12.3-13-19.3c-0.3-2.2-0.6-4.4-0.8-6.6c-1.5-18.4,0.3-41.3,14-55.1
            c12.8-13,33-16.9,50.6-16c4.9,0.2,9.8,0.9,14.7,2c4.8,1.3,9.5,2.9,14.1,4.8c0.8,0.3,1.7,0.7,2.5,1.1c5.4,4.6,10.2,9.9,15,15.2
            c0.6,0.6,1.1,1.2,1.7,1.9c1.2,3.5,2,7.2,2.5,11c-0.4-0.6-0.8-1.1-1.2-1.6c-2.8-3.8-5.9-7.3-9.4-10.5c-1-1.2-2.1-2.3-3.2-3.4
            c-7.6-7.4-17.4-12.4-27.7-14.5c-0.7-0.2-1.4-0.4-2.2-0.6c-18.4-4.9-38.6-2.5-52.2,11.9c-6.7,7.1-10.5,16.1-12.5,25.6
            c-2.1,10-3,20.5-1.1,30.6c3.5,18,17.8,30.5,34.4,37c17.4,6.8,38.6,8.8,54.1-3.3c1-0.8,1.9-1.6,2.9-2.4c5.4-2.5,10.4-5.7,14.9-9.6
            c-6.2,7.5-13.8,14-22.2,18.9C359.2,193.7,351.6,194.8,343.8,195.4 M283.4,178c-1.7-4.6-3-9.3-4.1-14.1c1.1,1.9,2.3,3.7,3.6,5.5
            c9.1,12.3,22.1,20.8,36.2,26.1c-2.1-0.3-4.2-0.6-6.3-1.1C302,191.8,291.8,185.8,283.4,178 M274.6,145.5
            c-1.6-7.4-1.7-15.3-0.5-23.2c1.5-9.6,4.7-19,11.4-26.3c2.8-3,6.1-5.7,9.6-8.1c-0.5,0.4-1.1,0.8-1.6,1.2
            c-16.3,12.9-19.7,35.8-18.9,55.4C274.6,144.9,274.6,145.2,274.6,145.5 M386.9,96.5c-2.1-2.3-4.3-4.5-6.5-6.6
            c1.4,0.8,2.8,1.7,4.2,2.7C385.5,93.8,386.2,95.1,386.9,96.5 M389.6,96.5c1.6,1.4,3,2.8,4.4,4.4c4.1,4.7,7.2,10.3,9.5,16.1
            c-1.9-2.9-3.9-5.7-6.1-8.4c-1.8-2.2-3.6-4.4-5.5-6.6C391.3,100.2,390.5,98.3,389.6,96.5 M397.2,160.2
            c-4.4,7.3-10.9,13.3-18.3,17.7c7.1-8.4,11.6-18.9,14.1-29.6c0.3,0.7,1.5,0.9,1.7-0.1c0.8-4.7,0.9-9.4,0.5-14.1
            c0.3-3.4,0.4-6.9,0.3-10.4C401.4,135.2,404.1,148.7,397.2,160.2 M333.4,83.2c-1.7,0.2-3.3,0.4-5,0.7c-17,3.3-31.9,15.1-39.5,30.6
            c-1.5,3.1-2.8,6.4-3.7,9.8c1.4-8.1,3.9-16.1,8.7-22.9C303.8,87.5,318.4,82.4,333.4,83.2 M347.8,189c6.3-0.1,12.6-1.2,18.6-3.1
            c-3.8,2.4-8,4.2-12.5,5.2c-9.5,2-19.7,0.6-29-2c-15.9-4.4-31.8-14.3-38.1-30.2c-2.2-5.6-3.1-11.6-3.2-17.7c0.1,0.5,0.1,1,0.2,1.5
            c1.4,9.8,6.8,18.2,13.6,25.2C310.5,181.2,329.1,189.4,347.8,189 M350.6,186.7c-17.9,1.2-35.8-5.6-48.9-17.8
            c-7.1-6.6-13.3-14.8-15.3-24.4c-2-9.6-0.1-19.8,4.1-28.5c7.2-14.9,21.2-26.3,37.4-29.8c7-1.5,14.3-1.5,21.3-0.2
            c11.5,3.5,22.5,9.9,31,17.7c6.8,8,11.2,18,12.6,28.4c-1,16.4-6,33.4-17.1,45.7c-1,1.2-2.1,2.3-3.3,3.3
            C365.5,184.3,357.9,186.2,350.6,186.7 M393,122.9c-0.8-2.8-1.9-5.5-3.1-8.2c1,1.4,2,2.8,2.9,4.3
            C392.8,120.3,392.9,121.6,393,122.9 M402.9,137.9c-1.4-6.7-4.2-13.3-7.8-19.2c-0.3-3.8-0.8-7.5-1.7-11.2c4.2,5,8.2,10.2,11.1,16.1
            c0.4,0.9,0.8,1.8,1.2,2.6c0.4,6.4-0.4,12.9-2.1,19.1C403.7,142.9,403.4,140.4,402.9,137.9 M323.2,76.9c-7.4,1.2-14.7,3.4-21.2,6.8
            c2.3-1.3,4.7-2.5,7.1-3.7c1-0.5,2-0.9,3-1.4C315.7,77.8,319.5,77.2,323.2,76.9 M288.4,185c7,5.2,14.7,9.1,22.8,11.2
            c5.2,1.3,10.6,1.9,16,2c1.6,0.4,3.1,0.9,4.7,1.2c3.3,0.8,6.7,1.5,10.2,2.1c-9.4,1.7-19.1,1.5-28.5-1.3
            C303.7,197.4,295.1,192.1,288.4,185 M341.6,199c-1.8-0.3-3.5-0.6-5.3-1c2.3-0.1,4.6-0.3,6.9-0.4c5.8-0.4,11.7-1.1,17.4-2.1
            c-3.8,1.8-7.8,3.3-11.9,4.5C346.3,199.7,343.9,199.3,341.6,199 M369,79.8c3.9,1.6,7.3,3.7,10.1,6.3c-0.9-0.5-1.8-0.9-2.7-1.3
            c-1.2-0.6-2.4-1.1-3.5-1.6c-1.8-1.4-3.7-2.8-5.6-4C367.9,79.3,368.5,79.6,369,79.8 M311.2,68.8c13-1.9,27-0.2,39.6,4.5
            c0,0-0.1,0-0.1,0c-10.6-1.6-21.5-2.1-31.9,0.9c-2.5,0.7-4.9,1.6-7.4,2.6c-13.2,3-25.8,9.6-35.3,19.4
            C282.7,81.7,294.9,71.1,311.2,68.8 M269.5,161.3c-10.2-16.1-9.7-36.5-0.2-52.8c0.3-0.6,0.7-1.2,1.1-1.8
            c-3.9,16.5-1.8,34.4,1.9,50.6c1.1,4.6,2.5,9.1,4.3,13.5C273.9,167.9,271.5,164.6,269.5,161.3 M326.4,210.9
            c-9.3-0.4-19.4-2-27.1-7.5c-5.6-4-9.4-10.1-12.3-16.6c5.4,5.6,12,10,19.1,13c13.4,5.7,28.1,6,41.9,2.4c5.1,0.6,10.2,0.7,15.2,0
            c2.5-0.3,4.9-0.9,7.2-1.8c-5.5,3.1-11.4,5.6-17.6,7.3C344.2,210.3,335.3,211.3,326.4,210.9"/>
    </g>
    <path class="st1" d="M64.1,30.1c8.5,4.1,17,8.4,25.5,12.8c9.2,5.5,15.4,12.4,18.8,20.6c0.7,1.1,1,2.6,1,4.5
        c0,7.7-2.1,13.2-6.4,16.5c-2,1.4-4.3,2.1-6.7,2.1c-3.8,0-11-3.9-21.5-11.7C64.3,67,56.1,63.1,50,63.1c-4.5,0-8.8,1.5-13.1,4.5
        c-2,1.7-3,4-3,7c0,3.9,1.8,8.3,5.5,13.2c3.7,5,7,8.1,9.9,9.5c23.3,10.2,41,22.2,53,36c4,4.7,6,11.2,6,19.4c0,9.6-2.4,19.4-7.2,29.3
        c-4.8,9.9-12.6,18.3-23.5,25c-10.9,6.8-22,10.1-33.4,10.1c-20.1,0-34.2-10.3-42.3-30.9c-0.7-1.6-1-3.6-1-5.8c0-4.7,1.8-9,5.4-13
        c3.6-4,7.4-6.1,11.4-6.4c3.1-0.5,5.9,1.9,8.4,7.4c2.9,6.3,5.3,10,7.1,11.1c4,2.5,8.6,3.7,13.8,3.7c7.8,0,14.7-2.5,20.6-7.6
        c5.9-5.1,8.9-11.7,8.9-20c0-6.3-5.2-12.4-15.4-18.1c-11.4-6-22.7-12-33.9-17.7C15.1,112.3,6.7,102.5,2,90.7C0.7,87.1,0,83.6,0,80
        c0-12.4,6.4-24.3,19.1-35.9c12.1-11,23.9-16.5,35.6-16.5C58.3,27.6,61.4,28.5,64.1,30.1z"/>
    <path class="st1" d="M136.9,82.6c0.4-6,0-14.7-1.3-25.9c-1.6-12.5-2.4-21.2-2.4-25.9c0-8.3,1.2-15.2,3.7-20.8
        c2.7-6.7,9.3-10.1,20-10.1c2.4,0,4.8,0.3,7,1c2.9,2.9,4.3,5.4,4.3,7.4c0,9-0.6,25.4-1.8,49.4c-1,20.4-1.3,36.7-0.9,49
        c0.7,0.9,3.2,1.3,7.7,1.3c6.5-4.9,12.9-9.8,19.1-14.8c7.6-5.1,14.5-7.7,20.8-7.7c4.9,0,9.7,1.5,14.4,4.4c2.9,1.6,4.4,3.5,4.4,5.7
        c0,4.5-2.9,8.2-8.7,11.1c-2,1.3-7.8,4.7-17.5,10.1c-7.6,4.3-13.4,8.4-17.5,12.4c16.1,12.1,38.3,31.2,66.5,57.4c1.3,1.8,2,3.6,2,5.4
        c0,3.8-2.1,7.1-6.4,9.7c-3.1,4-7.4,6-12.8,6c-4.5,0-7.8-1.5-10.1-4.4c-4.9-5.1-22.6-20.3-53-45.3c-1.1-0.9-2.1-1.3-3-1.3
        c-1.6,0-2,1.5-1.3,4.4c-0.5,4.5,0.1,11.5,1.5,21.2c1.5,9.6,2,16.7,1.5,21.2c-0.9,7.6-6.3,11.4-16.1,11.4c-5.2,0-8.4-1.3-9.7-4
        c-8.5-19.9-12.8-45.1-12.8-75.5C134.6,123.9,135.4,106.3,136.9,82.6z"/>
    <path class="st1" d="M451.4,213.9c-2.7-0.4-5.6-4-8.7-10.7c-0.9-6.9-1.7-22.4-2.4-46.3c-0.5-19-2-34.6-4.7-46.7
        c-1.1-2.7-2.2-5.3-3.4-7.7c-1.6-3.4-2.4-6.3-2.4-8.7c0-1.1,0.2-2.2,0.6-3.2c0.4-1,1.4-2.4,2.9-4.2c1.5-1.8,2.6-3.2,3.2-4.4
        c0.2-3.4,0.3-7.1,0.3-11.1c0-3.1,0-8,0-14.6c0-6.6,0-11.6,0-14.9c0-8.7,0.7-16.3,2-22.8c0.9-4,3.3-8.1,7.2-12.3
        C450.1,2.1,454,0,457.8,0c2.9,0,5.5,1.5,7.7,4.4c4.7,4.7,7.1,10.6,7.1,17.8c0,3.8-1.1,10-3.2,18.6c-2.1,8.6-3.2,15.1-3.2,19.3
        c0,6.3,1.3,11.8,4,16.5c20.9,1.1,38.7,5.5,53.6,13.1c17.5,9,29.1,21.6,34.7,37.9c1.3,3.8,2,7.7,2,11.8c0,8.5-2.6,17.2-7.7,26.2
        c-4.9,8.1-11.2,14.8-18.8,20.1c-27.5,19.5-51.2,29.2-70.8,29.2C459.1,214.9,455.2,214.5,451.4,213.9z M475.1,180.3
        c13.4-0.9,25.4-4.7,35.8-11.4c12.3-8.1,18.2-17.7,17.7-28.9c-0.2-9.8-6.5-18.4-18.8-25.5c-11.4-6.7-23.5-10.1-36.5-10.1
        c-2.5,0-4.9,0.1-7.2,0.3C466.2,138.8,469.1,164,475.1,180.3z"/>
    <path class="st1" d="M581,127.6c0-21.6,2-37.2,6-46.8c3.1-7.7,8.6-11.5,16.5-11.5c3.4,0,6.6,0.8,9.7,2.5c6.3,3.6,9.4,8.2,9.4,14
        c0,2.2-0.7,4.1-2,5.7c-4,6.8-6.2,15.7-6.4,26.7c-0.7,13.4-1.6,22-2.7,25.9c-1.1,3.8-1.7,8.2-1.7,13.1c0,3.6,0.5,9,1.5,16.2
        c1,7.3,1.5,12.8,1.5,16.6c0,3.8-0.2,7.5-0.5,11.1c-0.3,3.6-1.5,5.3-3.5,5.3c-4.9,1.6-9.3,2.5-13.1,2.5c-7.2,0-11.6-3.3-13.4-9.8
        c-1.8-7.9-2.7-17.5-2.7-28.7c0-4.6,0.2-11.8,0.7-21.3C580.8,139.4,581,132.3,581,127.6z M589.4,34.9c-1.6-2.2-2.3-5.3-2.3-9.4
        c0-10.4,2.3-17.2,7.1-20.5c4.7-3.3,9.7-4.9,15.1-4.9c4.5,0,8.4,1.5,11.9,4.5c3.5,3,5.2,7.3,5.2,12.7c0,4.7-1.2,9.5-3.7,14.6
        c-2.5,5.1-5,8.6-7.7,10.5c-2.7,1.9-5.6,2.9-8.7,2.9C599.7,45.1,594.1,41.7,589.4,34.9z"/>
</g>
</svg>
