<?xml version="1.0" encoding="UTF-8"?> <svg xmlns="http://www.w3.org/2000/svg" xmlns:xlink="http://www.w3.org/1999/xlink" width="2835" zoomAndPan="magnify" viewBox="0 0 2126.25 567.000005" height="756" preserveAspectRatio="xMidYMid meet"><defs><g></g><clipPath id="75a4f27d78"><path d="M 1.496094 32 L 2124.003906 32 L 2124.003906 566 L 1.496094 566 Z M 1.496094 32 " clip-rule="nonzero"></path></clipPath><clipPath id="34879087fa"><path d="M 1150 261 L 2123.003906 261 L 2123.003906 534 L 1150 534 Z M 1150 261 " clip-rule="nonzero"></path></clipPath><clipPath id="e73ae92137"><rect x="0" width="974" y="0" height="273"></rect></clipPath><clipPath id="94ad20a347"><path d="M 0.496094 0.34375 L 2123.003906 0.34375 L 2123.003906 283 L 0.496094 283 Z M 0.496094 0.34375 " clip-rule="nonzero"></path></clipPath><clipPath id="097414d888"><rect x="0" width="2124" y="0" height="283"></rect></clipPath><clipPath id="1b657ac085"><rect x="0" width="2124" y="0" height="534"></rect></clipPath></defs><g clip-path="url(#75a4f27d78)"><g transform="matrix(1, 0, 0, 1, 1, 32)"><g clip-path="url(#1b657ac085)"><g clip-path="url(#34879087fa)"><g transform="matrix(1, 0, 0, 1, 1150, 261)"><g clip-path="url(#e73ae92137)"><g fill="#000000" fill-opacity="1"><g transform="translate(1.186121, 242.324202)"><g><path d="M 126.273438 -178.542969 C 137.195312 -178.542969 146.902344 -176.304688 155.382812 -171.828125 L 155.472656 -171.78125 L 155.558594 -171.730469 C 163.945312 -166.941406 170.523438 -160.132812 175.289062 -151.3125 L 170.058594 -148.484375 L 165.410156 -152.199219 C 171.824219 -160.214844 179.394531 -166.632812 188.121094 -171.457031 C 197.09375 -176.179688 207.574219 -178.542969 219.550781 -178.542969 C 238.003906 -178.542969 252.476562 -172.824219 262.960938 -161.386719 C 273.097656 -149.835938 278.167969 -133.6875 278.167969 -112.949219 L 278.167969 5.949219 L 198.375 5.949219 L 198.375 -103.746094 C 198.375 -107.089844 197.929688 -109.253906 197.046875 -110.238281 L 201.464844 -114.21875 L 197.261719 -110.011719 C 196.519531 -110.753906 195.277344 -111.125 193.535156 -111.125 C 189.492188 -111.125 186.6875 -109.976562 185.121094 -107.683594 L 180.210938 -111.042969 L 185.3125 -107.984375 C 184.945312 -107.375 184.621094 -106.582031 184.34375 -105.601562 C 184.074219 -104.65625 183.9375 -103.191406 183.9375 -101.210938 L 183.9375 5.949219 L 104.144531 5.949219 L 104.144531 -103.746094 C 104.144531 -107.089844 103.703125 -109.253906 102.816406 -110.238281 L 107.238281 -114.21875 L 103.03125 -110.011719 C 102.289062 -110.753906 101.046875 -111.125 99.304688 -111.125 C 95.261719 -111.125 92.457031 -109.976562 90.890625 -107.683594 L 85.980469 -111.042969 L 91.082031 -107.984375 C 90.714844 -107.375 90.394531 -106.582031 90.113281 -105.601562 C 89.84375 -104.65625 89.707031 -103.191406 89.707031 -101.210938 L 89.707031 5.949219 L 9.914062 5.949219 L 9.914062 -173.46875 L 87.804688 -173.46875 L 87.804688 -150.070312 L 81.855469 -150.070312 L 77.097656 -153.636719 C 82.664062 -161.0625 89.507812 -167.09375 97.625 -171.730469 C 105.75 -176.273438 115.300781 -178.542969 126.273438 -178.542969 Z M 126.273438 -166.644531 C 117.367188 -166.644531 109.78125 -164.898438 103.527344 -161.402344 C 96.835938 -157.578125 91.199219 -152.613281 86.613281 -146.5 L 75.90625 -132.222656 L 75.90625 -167.519531 L 81.855469 -167.519531 L 81.855469 -161.570312 L 15.863281 -161.570312 L 15.863281 -167.519531 L 21.8125 -167.519531 L 21.8125 0 L 15.863281 0 L 15.863281 -5.949219 L 83.757812 -5.949219 L 83.757812 0 L 77.8125 0 L 77.8125 -101.210938 C 77.8125 -104.304688 78.097656 -106.855469 78.675781 -108.871094 C 79.242188 -110.855469 79.976562 -112.597656 80.878906 -114.105469 L 80.96875 -114.257812 L 81.070312 -114.402344 C 85 -120.148438 91.078125 -123.023438 99.304688 -123.023438 C 104.332031 -123.023438 108.378906 -121.488281 111.445312 -118.421875 L 111.554688 -118.3125 L 111.660156 -118.195312 C 114.582031 -114.949219 116.042969 -110.132812 116.042969 -103.746094 L 116.042969 0 L 110.09375 0 L 110.09375 -5.949219 L 177.988281 -5.949219 L 177.988281 0 L 172.039062 0 L 172.039062 -101.210938 C 172.039062 -104.304688 172.328125 -106.855469 172.902344 -108.871094 C 173.46875 -110.855469 174.203125 -112.597656 175.109375 -114.105469 L 175.199219 -114.257812 L 175.300781 -114.402344 C 179.230469 -120.148438 185.308594 -123.023438 193.535156 -123.023438 C 198.5625 -123.023438 202.609375 -121.488281 205.671875 -118.421875 L 205.785156 -118.3125 L 205.886719 -118.195312 C 208.808594 -114.949219 210.269531 -110.132812 210.269531 -103.746094 L 210.269531 0 L 204.320312 0 L 204.320312 -5.949219 L 272.21875 -5.949219 L 272.21875 0 L 266.269531 0 L 266.269531 -112.949219 C 266.269531 -130.703125 262.242188 -144.167969 254.191406 -153.347656 C 246.0625 -162.214844 234.515625 -166.644531 219.550781 -166.644531 C 209.53125 -166.644531 200.972656 -164.777344 193.875 -161.042969 C 186.523438 -156.980469 180.132812 -151.554688 174.703125 -144.765625 L 169.09375 -137.753906 L 164.824219 -145.652344 C 161.132812 -152.484375 156.074219 -157.734375 149.65625 -161.402344 L 152.605469 -166.566406 L 149.832031 -161.304688 C 143.085938 -164.867188 135.234375 -166.644531 126.273438 -166.644531 Z M 126.273438 -166.644531 "></path></g></g></g><g fill="#000000" fill-opacity="1"><g transform="translate(287.681778, 242.324202)"><g><path d="M 185.75 -54.179688 C 181.875 -32.050781 172.394531 -15.652344 157.3125 -4.980469 C 142.328125 5.691406 122.78125 11.023438 98.671875 11.023438 C 67.546875 11.023438 44.203125 2.671875 28.644531 -14.03125 C 12.984375 -30.367188 5.15625 -52.871094 5.15625 -81.539062 C 5.15625 -96.386719 7.277344 -109.84375 11.519531 -121.902344 C 15.601562 -133.921875 21.761719 -144.164062 30 -152.632812 C 37.972656 -161.058594 47.765625 -167.550781 59.378906 -172.105469 C 70.675781 -176.398438 83.453125 -178.542969 97.71875 -178.542969 C 111.785156 -178.542969 124.347656 -176.402344 135.402344 -172.113281 C 146.574219 -167.78125 156.058594 -161.605469 163.855469 -153.578125 L 163.914062 -153.519531 L 163.972656 -153.453125 C 171.515625 -145.226562 177.21875 -135.429688 181.082031 -124.0625 C 184.890625 -112.644531 186.792969 -100.054688 186.792969 -86.296875 L 186.792969 -63.214844 L 74.875 -63.214844 L 74.875 -69.164062 L 80.820312 -69.402344 C 81.179688 -60.4375 82.78125 -54.605469 85.628906 -51.910156 L 85.6875 -51.855469 L 85.746094 -51.796875 C 88.601562 -48.941406 92.59375 -47.511719 97.71875 -47.511719 C 101.886719 -47.511719 105.132812 -48.304688 107.453125 -49.886719 C 109.589844 -51.34375 111.097656 -53.648438 111.976562 -56.804688 L 113.191406 -61.152344 L 186.972656 -61.152344 Z M 174.03125 -56.230469 L 179.890625 -55.203125 L 179.890625 -49.257812 L 117.707031 -49.257812 L 117.707031 -55.203125 L 123.4375 -53.605469 C 121.777344 -47.664062 118.6875 -43.148438 114.160156 -40.058594 C 109.816406 -37.09375 104.335938 -35.613281 97.71875 -35.613281 C 89.308594 -35.613281 82.511719 -38.203125 77.332031 -43.382812 L 81.539062 -47.589844 L 77.445312 -43.273438 C 72.257812 -48.1875 69.417969 -56.738281 68.933594 -68.925781 L 68.683594 -75.113281 L 180.84375 -75.113281 L 180.84375 -69.164062 L 174.894531 -69.164062 L 174.894531 -86.296875 C 174.894531 -98.769531 173.203125 -110.078125 169.820312 -120.234375 C 166.492188 -130.019531 161.617188 -138.414062 155.203125 -145.414062 L 159.585938 -149.433594 L 155.320312 -145.289062 C 148.730469 -152.070312 140.660156 -157.316406 131.101562 -161.019531 C 121.429688 -164.769531 110.300781 -166.644531 97.71875 -166.644531 C 84.910156 -166.644531 73.578125 -164.773438 63.722656 -161.027344 C 53.757812 -157.121094 45.363281 -151.558594 38.527344 -144.335938 C 31.539062 -137.148438 26.277344 -128.355469 22.746094 -117.953125 C 18.949219 -107.171875 17.054688 -95.03125 17.054688 -81.539062 C 17.054688 -56.058594 23.820312 -36.257812 37.347656 -22.140625 C 50.554688 -7.960938 70.996094 -0.871094 98.671875 -0.871094 C 120.246094 -0.871094 137.503906 -5.480469 150.441406 -14.691406 C 162.855469 -23.476562 170.71875 -37.324219 174.03125 -56.230469 Z M 98.671875 -120.640625 C 93.425781 -120.640625 89.25 -119.246094 86.152344 -116.457031 C 83.144531 -113.753906 81.472656 -109.097656 81.132812 -102.492188 L 75.191406 -102.796875 L 75.191406 -108.746094 L 119.292969 -108.746094 L 119.292969 -102.796875 L 113.351562 -102.511719 C 113 -109.933594 111.632812 -114.910156 109.25 -117.4375 L 113.582031 -121.515625 L 109.503906 -117.183594 C 107.054688 -119.488281 103.445312 -120.640625 98.671875 -120.640625 Z M 98.671875 -132.539062 C 106.589844 -132.539062 112.917969 -130.308594 117.660156 -125.847656 L 117.792969 -125.722656 L 117.914062 -125.589844 C 122.304688 -120.929688 124.742188 -113.425781 125.234375 -103.078125 L 125.53125 -96.847656 L 68.929688 -96.847656 L 69.253906 -103.101562 C 69.757812 -112.992188 72.738281 -120.394531 78.195312 -125.300781 C 83.554688 -130.128906 90.378906 -132.539062 98.671875 -132.539062 Z M 98.671875 -132.539062 "></path></g></g></g><g fill="#000000" fill-opacity="1"><g transform="translate(479.63067, 242.324202)"><g><path d="M 116.519531 0 L 116.519531 -16.5 L 122.464844 -16.5 L 127.191406 -12.882812 C 115.003906 3.054688 98.199219 11.023438 76.78125 11.023438 C 54.546875 11.023438 37.019531 2.863281 24.195312 -13.457031 C 11.5 -29.09375 5.15625 -51.683594 5.15625 -81.222656 C 5.15625 -96.378906 6.925781 -110.046875 10.46875 -122.222656 C 14.074219 -134.390625 19.175781 -144.683594 25.777344 -153.105469 C 32.265625 -161.449219 40.167969 -167.835938 49.480469 -172.257812 C 58.558594 -176.449219 68.609375 -178.542969 79.636719 -178.542969 C 89.851562 -178.542969 98.859375 -176.652344 106.660156 -172.871094 C 114.347656 -169.027344 120.378906 -164.066406 124.757812 -157.988281 L 119.929688 -154.511719 L 113.980469 -154.511719 L 113.980469 -232.480469 L 193.773438 -232.480469 L 193.773438 5.949219 L 116.519531 5.949219 Z M 128.414062 0 L 122.464844 0 L 122.464844 -5.949219 L 187.824219 -5.949219 L 187.824219 0 L 181.875 0 L 181.875 -226.53125 L 187.824219 -226.53125 L 187.824219 -220.582031 L 119.929688 -220.582031 L 119.929688 -226.53125 L 125.878906 -226.53125 L 125.878906 -136.066406 L 115.101562 -151.035156 C 111.863281 -155.53125 107.320312 -159.238281 101.46875 -162.164062 C 95.308594 -165.152344 88.03125 -166.644531 79.636719 -166.644531 C 70.351562 -166.644531 62.003906 -164.933594 54.585938 -161.511719 C 46.976562 -157.894531 40.492188 -152.648438 35.140625 -145.765625 C 29.472656 -138.535156 25.058594 -129.578125 21.894531 -118.902344 C 18.667969 -107.808594 17.054688 -95.25 17.054688 -81.222656 C 17.054688 -54.496094 22.550781 -34.359375 33.550781 -20.808594 C 43.992188 -7.519531 58.402344 -0.871094 76.78125 -0.871094 C 94.277344 -0.871094 107.933594 -7.285156 117.742188 -20.113281 L 128.414062 -34.070312 Z M 113.664062 -86.296875 C 113.664062 -96.621094 112.359375 -103.957031 109.75 -108.300781 C 107.78125 -111.453125 104.511719 -113.027344 99.941406 -113.027344 C 95.269531 -113.027344 91.730469 -111.25 89.3125 -107.699219 C 86.402344 -103.25 84.949219 -95.480469 84.949219 -84.394531 C 84.949219 -73.308594 86.421875 -65.507812 89.371094 -61 C 91.792969 -57.292969 95.316406 -55.441406 99.941406 -55.441406 C 104.164062 -55.441406 107.378906 -57.097656 109.585938 -60.410156 C 111.058594 -62.699219 112.140625 -65.5 112.839844 -68.804688 L 118.660156 -67.578125 L 112.78125 -68.507812 C 113.371094 -72.21875 113.664062 -76.667969 113.664062 -81.855469 Z M 125.558594 -86.296875 L 125.558594 -81.855469 C 125.558594 -76.046875 125.21875 -70.976562 124.535156 -66.652344 L 124.511719 -66.5 L 124.480469 -66.351562 C 123.484375 -61.621094 121.820312 -57.4375 119.484375 -53.808594 C 114.921875 -46.964844 108.40625 -43.546875 99.941406 -43.546875 C 91.027344 -43.546875 84.183594 -47.191406 79.414062 -54.488281 C 75.171875 -60.976562 73.050781 -70.945312 73.050781 -84.394531 C 73.050781 -97.84375 75.191406 -107.84375 79.476562 -114.390625 C 84.25 -121.414062 91.074219 -124.925781 99.941406 -124.925781 C 108.90625 -124.925781 115.578125 -121.425781 119.953125 -114.421875 C 123.691406 -108.191406 125.558594 -98.816406 125.558594 -86.296875 Z M 125.558594 -86.296875 "></path></g></g></g><g fill="#000000" fill-opacity="1"><g transform="translate(683.318576, 242.324202)"><g><path d="M 15.863281 -173.46875 L 89.707031 -173.46875 L 89.707031 5.949219 L 9.914062 5.949219 L 9.914062 -173.46875 Z M 15.863281 -161.570312 L 15.863281 -167.519531 L 21.8125 -167.519531 L 21.8125 0 L 15.863281 0 L 15.863281 -5.949219 L 83.757812 -5.949219 L 83.757812 0 L 77.8125 0 L 77.8125 -167.519531 L 83.757812 -167.519531 L 83.757812 -161.570312 Z M 15.863281 -232.480469 L 89.707031 -232.480469 L 89.707031 -177.75 L 9.914062 -177.75 L 9.914062 -232.480469 Z M 15.863281 -220.582031 L 15.863281 -226.53125 L 21.8125 -226.53125 L 21.8125 -183.699219 L 15.863281 -183.699219 L 15.863281 -189.648438 L 83.757812 -189.648438 L 83.757812 -183.699219 L 77.8125 -183.699219 L 77.8125 -226.53125 L 83.757812 -226.53125 L 83.757812 -220.582031 Z M 15.863281 -220.582031 "></path></g></g></g><g fill="#000000" fill-opacity="1"><g transform="translate(782.941646, 242.324202)"><g><path d="M 108.585938 0 L 108.585938 -15.863281 L 114.535156 -15.863281 L 118.742188 -11.65625 C 111.453125 -4.367188 103.664062 1.117188 95.375 4.800781 C 86.761719 8.527344 76.964844 10.390625 65.992188 10.390625 C 58.464844 10.390625 51.054688 9.363281 43.757812 7.3125 C 36.214844 5.191406 29.484375 1.765625 23.570312 -2.96875 L 27.285156 -7.613281 L 23.6875 -2.878906 C 17.664062 -7.457031 12.859375 -13.328125 9.273438 -20.5 L 14.59375 -23.160156 L 9.34375 -20.359375 C 5.496094 -27.582031 3.570312 -36.234375 3.570312 -46.320312 C 3.570312 -58.480469 6.3125 -68.851562 11.800781 -77.445312 C 17.007812 -85.726562 24.101562 -92.230469 33.082031 -96.957031 C 41.882812 -101.46875 51.117188 -104.625 60.78125 -106.421875 C 69.941406 -108.167969 80.492188 -109.257812 92.425781 -109.691406 L 111.800781 -110.328125 L 111.996094 -104.382812 L 106.046875 -104.382812 L 106.046875 -110.09375 C 106.046875 -114.675781 105.304688 -117.773438 103.816406 -119.382812 C 102.457031 -120.855469 100.109375 -121.59375 96.765625 -121.59375 C 93.355469 -121.59375 90.828125 -120.898438 89.1875 -119.511719 C 87.523438 -118.105469 86.398438 -115.773438 85.804688 -112.519531 L 84.847656 -107.257812 L 12.5 -112.5625 L 13.472656 -118.925781 C 16.480469 -138.582031 25.34375 -153.550781 40.058594 -163.828125 C 54.429688 -173.640625 73.96875 -178.542969 98.671875 -178.542969 C 113.921875 -178.542969 126.828125 -176.746094 137.390625 -173.148438 C 148.003906 -169.457031 156.699219 -164.226562 163.476562 -157.449219 C 170.125 -150.5625 174.855469 -142.3125 177.667969 -132.703125 C 180.367188 -123.484375 181.714844 -113.304688 181.714844 -102.160156 L 181.714844 5.949219 L 108.585938 5.949219 Z M 120.484375 0 L 114.535156 0 L 114.535156 -5.949219 L 175.769531 -5.949219 L 175.769531 0 L 169.820312 0 L 169.820312 -102.160156 C 169.820312 -112.167969 168.628906 -121.234375 166.25 -129.363281 C 163.988281 -137.097656 160.257812 -143.652344 155.0625 -149.035156 C 149.570312 -154.527344 142.402344 -158.808594 133.558594 -161.886719 C 124.238281 -165.058594 112.609375 -166.644531 98.671875 -166.644531 C 76.417969 -166.644531 59.152344 -162.457031 46.871094 -154.074219 C 34.941406 -145.742188 27.726562 -133.425781 25.234375 -117.125 L 19.351562 -118.023438 L 19.789062 -123.957031 L 80.386719 -119.515625 L 79.953125 -113.582031 L 74.097656 -114.648438 C 75.199219 -120.699219 77.667969 -125.347656 81.503906 -128.59375 C 85.363281 -131.859375 90.449219 -133.492188 96.765625 -133.492188 C 103.582031 -133.492188 108.84375 -131.480469 112.558594 -127.453125 C 116.148438 -123.5625 117.945312 -117.777344 117.945312 -110.09375 L 117.945312 -98.625 L 92.859375 -97.800781 C 81.527344 -97.390625 71.558594 -96.363281 62.957031 -94.726562 C 54.429688 -93.140625 46.320312 -90.375 38.621094 -86.425781 C 31.527344 -82.691406 25.929688 -77.5625 21.828125 -71.039062 C 17.585938 -64.402344 15.46875 -56.160156 15.46875 -46.320312 C 15.46875 -38.21875 16.925781 -31.429688 19.84375 -25.960938 L 19.914062 -25.820312 C 22.675781 -20.300781 26.332031 -15.8125 30.886719 -12.351562 L 30.945312 -12.304688 L 31 -12.257812 C 35.660156 -8.53125 40.988281 -5.824219 46.980469 -4.140625 C 53.222656 -2.386719 59.558594 -1.507812 65.992188 -1.507812 C 75.324219 -1.507812 83.507812 -3.027344 90.542969 -6.070312 C 97.484375 -9.15625 104.082031 -13.820312 110.328125 -20.070312 L 120.484375 -30.226562 Z M 112.320312 -61.957031 L 94.871094 -61.003906 C 88.183594 -60.640625 83.507812 -59.523438 80.84375 -57.640625 C 78.714844 -56.105469 77.652344 -54.023438 77.652344 -51.398438 C 77.652344 -49.363281 78.128906 -47.988281 79.078125 -47.273438 L 79.203125 -47.183594 L 79.320312 -47.085938 C 80.753906 -45.886719 83.1875 -45.289062 86.613281 -45.289062 C 92.425781 -45.289062 97.191406 -47.066406 100.90625 -50.621094 C 104.332031 -53.894531 106.046875 -58.382812 106.046875 -64.089844 L 106.046875 -67.894531 L 111.996094 -67.894531 Z M 117.945312 -74.179688 L 117.945312 -64.089844 C 117.945312 -54.988281 115.007812 -47.632812 109.128906 -42.023438 C 103.113281 -36.269531 95.609375 -33.394531 86.613281 -33.394531 C 80.3125 -33.394531 75.34375 -34.910156 71.703125 -37.945312 L 75.511719 -42.515625 L 71.941406 -37.753906 C 67.816406 -40.847656 65.753906 -45.394531 65.753906 -51.398438 C 65.753906 -58.078125 68.496094 -63.402344 73.984375 -67.363281 C 78.511719 -70.558594 85.257812 -72.398438 94.222656 -72.882812 L 111.671875 -73.835938 Z M 117.945312 -74.179688 "></path></g></g></g></g></g></g><g clip-path="url(#94ad20a347)"><g transform="matrix(1, 0, 0, 1, 0, -0.000000000000028422)"><g clip-path="url(#097414d888)"><g fill="#000000" fill-opacity="1"><g transform="translate(-8.270987, 251.530584)"><g><path d="M 202.578125 -46.375 C 203.941406 -45.695312 204.847656 -44.5625 205.296875 -42.96875 C 205.523438 -41.375 205.1875 -40.007812 204.28125 -38.875 L 204.28125 -38.53125 C 194.726562 -25.800781 183.132812 -16.253906 169.5 -9.890625 C 155.625 -3.296875 140.160156 0 123.109375 0 C 88.554688 0 61.503906 -12.84375 41.953125 -38.53125 C 25.347656 -61.039062 17.046875 -89.800781 17.046875 -124.8125 C 17.046875 -142.320312 19.207031 -158.351562 23.53125 -172.90625 C 27.625 -187.457031 33.765625 -200.1875 41.953125 -211.09375 C 51.492188 -224.050781 63.203125 -233.828125 77.078125 -240.421875 C 90.710938 -246.785156 106.054688 -249.96875 123.109375 -249.96875 C 140.160156 -249.96875 155.625 -246.785156 169.5 -240.421875 C 183.132812 -233.828125 194.726562 -224.050781 204.28125 -211.09375 C 205.1875 -209.957031 205.523438 -208.59375 205.296875 -207 C 204.847656 -205.414062 203.941406 -204.28125 202.578125 -203.59375 L 178.359375 -189.265625 C 175.628906 -188.128906 173.351562 -188.585938 171.53125 -190.640625 C 167.664062 -195.179688 163.578125 -198.816406 159.265625 -201.546875 C 154.710938 -204.273438 150.28125 -206.4375 145.96875 -208.03125 C 141.644531 -209.394531 137.550781 -210.300781 133.6875 -210.75 C 129.59375 -211.207031 126.066406 -211.4375 123.109375 -211.4375 C 117.878906 -211.4375 111.515625 -210.640625 104.015625 -209.046875 C 96.285156 -207.234375 88.894531 -203.367188 81.84375 -197.453125 C 74.570312 -191.546875 68.4375 -182.90625 63.4375 -171.53125 C 58.207031 -159.9375 55.59375 -144.363281 55.59375 -124.8125 C 55.59375 -105.257812 58.207031 -89.800781 63.4375 -78.4375 C 68.4375 -67.070312 74.570312 -58.429688 81.84375 -52.515625 C 88.894531 -46.609375 96.285156 -42.859375 104.015625 -41.265625 C 111.515625 -39.441406 117.878906 -38.53125 123.109375 -38.53125 C 126.066406 -38.53125 129.59375 -38.757812 133.6875 -39.21875 C 137.550781 -39.675781 141.644531 -40.695312 145.96875 -42.28125 C 150.28125 -43.644531 154.710938 -45.691406 159.265625 -48.421875 C 163.578125 -51.148438 167.664062 -54.789062 171.53125 -59.34375 C 173.351562 -61.613281 175.628906 -61.953125 178.359375 -60.359375 Z M 202.578125 -46.375 "></path></g></g></g><g fill="#000000" fill-opacity="1"><g transform="translate(214.077544, 251.530584)"><g><path d="M 111.859375 0 C 80.253906 0 55.8125 -13.1875 38.53125 -39.5625 C 24.207031 -61.84375 17.046875 -90.257812 17.046875 -124.8125 C 17.046875 -141.863281 18.867188 -157.664062 22.515625 -172.21875 C 26.148438 -186.539062 31.488281 -199.160156 38.53125 -210.078125 C 55.8125 -236.671875 80.253906 -249.96875 111.859375 -249.96875 C 143.460938 -249.96875 167.90625 -236.671875 185.1875 -210.078125 C 192.226562 -199.160156 197.566406 -186.539062 201.203125 -172.21875 C 204.847656 -157.664062 206.671875 -141.863281 206.671875 -124.8125 C 206.671875 -90.257812 199.507812 -61.84375 185.1875 -39.5625 C 167.90625 -13.1875 143.460938 0 111.859375 0 Z M 111.859375 -211.4375 C 103.222656 -211.4375 95.832031 -209.847656 89.6875 -206.671875 C 83.550781 -203.253906 78.4375 -198.929688 74.34375 -193.703125 C 70.019531 -188.242188 66.609375 -182.332031 64.109375 -175.96875 C 61.609375 -169.375 59.789062 -162.894531 58.65625 -156.53125 C 57.289062 -149.9375 56.492188 -143.910156 56.265625 -138.453125 C 55.816406 -132.773438 55.59375 -128.226562 55.59375 -124.8125 C 55.59375 -121.40625 55.816406 -116.972656 56.265625 -111.515625 C 56.492188 -105.828125 57.289062 -99.800781 58.65625 -93.4375 C 59.789062 -87.070312 61.609375 -80.707031 64.109375 -74.34375 C 66.609375 -67.75 70.019531 -61.835938 74.34375 -56.609375 C 78.4375 -51.148438 83.550781 -46.832031 89.6875 -43.65625 C 95.832031 -40.238281 103.222656 -38.53125 111.859375 -38.53125 C 120.492188 -38.53125 127.882812 -40.238281 134.03125 -43.65625 C 140.164062 -46.832031 145.394531 -51.148438 149.71875 -56.609375 C 153.800781 -61.835938 157.097656 -67.75 159.609375 -74.34375 C 162.109375 -80.707031 164.039062 -87.070312 165.40625 -93.4375 C 166.539062 -99.800781 167.332031 -105.828125 167.78125 -111.515625 C 168.007812 -116.972656 168.125 -121.40625 168.125 -124.8125 C 168.125 -128.226562 168.007812 -132.773438 167.78125 -138.453125 C 167.332031 -143.910156 166.539062 -149.9375 165.40625 -156.53125 C 164.039062 -162.894531 162.109375 -169.375 159.609375 -175.96875 C 157.097656 -182.332031 153.800781 -188.242188 149.71875 -193.703125 C 145.394531 -198.929688 140.164062 -203.253906 134.03125 -206.671875 C 127.882812 -209.847656 120.492188 -211.4375 111.859375 -211.4375 Z M 111.859375 -211.4375 "></path></g></g></g><g fill="#000000" fill-opacity="1"><g transform="translate(437.790141, 251.530584)"><g><path d="M 166.078125 -249.96875 C 168.804688 -249.96875 171.195312 -249.0625 173.25 -247.25 C 175.0625 -245.195312 175.96875 -242.8125 175.96875 -240.09375 L 175.96875 -9.890625 C 175.96875 -7.160156 175.0625 -4.882812 173.25 -3.0625 C 171.195312 -1.019531 168.804688 0 166.078125 0 L 139.828125 0 C 135.734375 0 132.773438 -1.929688 130.953125 -5.796875 L 62.75 -151.765625 C 62.070312 -153.578125 60.707031 -154.257812 58.65625 -153.8125 C 56.613281 -153.351562 55.59375 -152.097656 55.59375 -150.046875 L 55.59375 -9.890625 C 55.59375 -7.160156 54.679688 -4.882812 52.859375 -3.0625 C 50.816406 -1.019531 48.316406 0 45.359375 0 L 26.9375 0 C 24.207031 0 21.9375 -1.019531 20.125 -3.0625 C 18.070312 -4.882812 17.046875 -7.160156 17.046875 -9.890625 L 17.046875 -240.09375 C 17.046875 -242.8125 18.070312 -245.195312 20.125 -247.25 C 21.9375 -249.0625 24.207031 -249.96875 26.9375 -249.96875 L 53.203125 -249.96875 C 57.523438 -249.96875 60.476562 -248.035156 62.0625 -244.171875 L 130.28125 -98.21875 C 130.957031 -96.394531 132.429688 -95.710938 134.703125 -96.171875 C 136.523438 -96.628906 137.4375 -97.878906 137.4375 -99.921875 L 137.4375 -240.09375 C 137.4375 -242.8125 138.457031 -245.195312 140.5 -247.25 C 142.550781 -249.0625 144.941406 -249.96875 147.671875 -249.96875 Z M 166.078125 -249.96875 "></path></g></g></g><g fill="#000000" fill-opacity="1"><g transform="translate(630.810446, 251.530584)"><g><path d="M 174.953125 -249.96875 C 178.128906 -249.96875 180.742188 -248.609375 182.796875 -245.890625 C 184.609375 -243.378906 185.175781 -240.535156 184.5 -237.359375 C 182.90625 -231.441406 181.769531 -226.894531 181.09375 -223.71875 C 180.175781 -220.53125 179.378906 -217.6875 178.703125 -215.1875 C 178.015625 -212.6875 177.332031 -210.070312 176.65625 -207.34375 C 175.75 -204.382812 174.613281 -200.289062 173.25 -195.0625 C 171.65625 -189.613281 169.722656 -182.453125 167.453125 -173.578125 C 164.941406 -164.710938 161.753906 -153.003906 157.890625 -138.453125 C 154.023438 -123.898438 149.253906 -105.941406 143.578125 -84.578125 C 137.660156 -63.203125 130.722656 -37.507812 122.765625 -7.5 C 122.316406 -5.226562 121.179688 -3.410156 119.359375 -2.046875 C 117.535156 -0.679688 115.488281 0 113.21875 0 L 88.671875 0 C 86.398438 0 84.351562 -0.679688 82.53125 -2.046875 C 80.707031 -3.410156 79.570312 -5.226562 79.125 -7.5 C 77.53125 -13.863281 75.140625 -22.84375 71.953125 -34.4375 C 68.773438 -45.8125 65.367188 -58.660156 61.734375 -72.984375 C 57.859375 -87.078125 53.878906 -102.082031 49.796875 -118 C 45.472656 -133.6875 41.265625 -149.03125 37.171875 -164.03125 C 33.078125 -178.8125 29.328125 -192.679688 25.921875 -205.640625 C 22.503906 -218.367188 19.660156 -228.941406 17.390625 -237.359375 C 16.710938 -240.765625 17.28125 -243.609375 19.09375 -245.890625 C 21.144531 -248.609375 23.757812 -249.96875 26.9375 -249.96875 L 46.046875 -249.96875 C 51.046875 -249.96875 54.335938 -247.46875 55.921875 -242.46875 C 57.742188 -235.875 60.472656 -225.984375 64.109375 -212.796875 C 67.523438 -199.617188 71.28125 -185.523438 75.375 -170.515625 C 79.457031 -155.285156 83.429688 -140.394531 87.296875 -125.84375 C 90.941406 -111.289062 94.015625 -99.46875 96.515625 -90.375 C 97.191406 -88.101562 98.664062 -86.96875 100.9375 -86.96875 C 103.21875 -86.96875 104.582031 -88.101562 105.03125 -90.375 C 106.625 -96.507812 108.671875 -103.898438 111.171875 -112.546875 C 113.453125 -121.179688 115.953125 -130.382812 118.671875 -140.15625 C 121.179688 -149.9375 123.796875 -159.941406 126.515625 -170.171875 C 129.242188 -180.179688 131.859375 -189.84375 134.359375 -199.15625 C 136.867188 -208.476562 139.144531 -216.894531 141.1875 -224.40625 C 143.226562 -231.90625 144.820312 -237.925781 145.96875 -242.46875 C 147.550781 -247.46875 150.84375 -249.96875 155.84375 -249.96875 Z M 174.953125 -249.96875 "></path></g></g></g><g fill="#000000" fill-opacity="1"><g transform="translate(832.697488, 251.530584)"><g><path d="M 139.828125 -221.328125 C 139.828125 -218.597656 138.914062 -216.328125 137.09375 -214.515625 C 135.050781 -212.460938 132.664062 -211.4375 129.9375 -211.4375 L 65.484375 -211.4375 C 62.753906 -211.4375 60.476562 -210.53125 58.65625 -208.71875 C 56.613281 -206.664062 55.59375 -204.273438 55.59375 -201.546875 L 55.59375 -181.09375 C 55.59375 -178.363281 56.613281 -176.085938 58.65625 -174.265625 C 60.476562 -172.222656 62.753906 -171.203125 65.484375 -171.203125 L 108.109375 -171.203125 C 111.066406 -171.203125 113.566406 -170.289062 115.609375 -168.46875 C 117.429688 -166.425781 118.34375 -164.039062 118.34375 -161.3125 L 118.34375 -142.890625 C 118.34375 -140.160156 117.429688 -137.773438 115.609375 -135.734375 C 113.566406 -133.679688 111.066406 -132.65625 108.109375 -132.65625 L 65.484375 -132.65625 C 62.753906 -132.65625 60.476562 -131.75 58.65625 -129.9375 C 56.613281 -127.882812 55.59375 -125.492188 55.59375 -122.765625 L 55.59375 -48.421875 C 55.59375 -45.691406 56.613281 -43.421875 58.65625 -41.609375 C 60.476562 -39.554688 62.753906 -38.53125 65.484375 -38.53125 L 129.9375 -38.53125 C 132.664062 -38.53125 135.050781 -37.625 137.09375 -35.8125 C 138.914062 -33.757812 139.828125 -31.367188 139.828125 -28.640625 L 139.828125 -9.890625 C 139.828125 -7.160156 138.914062 -4.882812 137.09375 -3.0625 C 135.050781 -1.019531 132.664062 0 129.9375 0 L 26.9375 0 C 24.207031 0 21.9375 -1.019531 20.125 -3.0625 C 18.070312 -4.882812 17.046875 -7.160156 17.046875 -9.890625 L 17.046875 -240.09375 C 17.046875 -242.8125 18.070312 -245.195312 20.125 -247.25 C 21.9375 -249.0625 24.207031 -249.96875 26.9375 -249.96875 L 129.9375 -249.96875 C 132.664062 -249.96875 135.050781 -249.0625 137.09375 -247.25 C 138.914062 -245.195312 139.828125 -242.8125 139.828125 -240.09375 Z M 139.828125 -221.328125 "></path></g></g></g><g fill="#000000" fill-opacity="1"><g transform="translate(989.569134, 251.530584)"><g><path d="M 83.21875 -249.96875 C 95.945312 -249.96875 106.972656 -247.128906 116.296875 -241.453125 C 125.617188 -235.535156 133.234375 -227.914062 139.140625 -218.59375 C 145.046875 -209.28125 149.253906 -198.820312 151.765625 -187.21875 C 154.265625 -175.625 155.054688 -163.914062 154.140625 -152.09375 C 153.003906 -140.269531 150.28125 -129.019531 145.96875 -118.34375 C 141.414062 -107.65625 135.273438 -98.671875 127.546875 -91.390625 C 124.140625 -88.441406 123.226562 -84.921875 124.8125 -80.828125 L 149.375 -13.296875 C 150.507812 -10.117188 150.164062 -7.164062 148.34375 -4.4375 C 146.300781 -1.476562 143.460938 0 139.828125 0 L 120.390625 0 C 115.609375 0 112.421875 -2.160156 110.828125 -6.484375 L 88.671875 -67.859375 C 87.078125 -72.179688 83.894531 -74.34375 79.125 -74.34375 L 65.484375 -74.34375 C 62.753906 -74.34375 60.476562 -73.429688 58.65625 -71.609375 C 56.613281 -69.566406 55.59375 -67.179688 55.59375 -64.453125 L 55.59375 -9.890625 C 55.59375 -7.160156 54.679688 -4.882812 52.859375 -3.0625 C 50.816406 -1.019531 48.429688 0 45.703125 0 L 26.9375 0 C 24.207031 0 21.9375 -1.019531 20.125 -3.0625 C 18.070312 -4.882812 17.046875 -7.160156 17.046875 -9.890625 L 17.046875 -240.09375 C 17.046875 -242.8125 18.070312 -245.195312 20.125 -247.25 C 21.9375 -249.0625 24.207031 -249.96875 26.9375 -249.96875 Z M 55.59375 -122.765625 C 55.59375 -120.035156 56.613281 -117.765625 58.65625 -115.953125 C 60.476562 -113.898438 62.753906 -112.875 65.484375 -112.875 L 83.890625 -112.875 C 90.941406 -112.875 96.851562 -115.378906 101.625 -120.390625 C 106.394531 -125.160156 110.035156 -131.179688 112.546875 -138.453125 C 115.046875 -145.734375 116.296875 -153.691406 116.296875 -162.328125 C 116.296875 -170.742188 115.15625 -178.585938 112.875 -185.859375 C 110.375 -193.140625 106.738281 -199.28125 101.96875 -204.28125 C 97.195312 -209.050781 91.171875 -211.4375 83.890625 -211.4375 L 65.484375 -211.4375 C 62.753906 -211.4375 60.476562 -210.53125 58.65625 -208.71875 C 56.613281 -206.664062 55.59375 -204.273438 55.59375 -201.546875 Z M 55.59375 -122.765625 "></path></g></g></g><g fill="#000000" fill-opacity="1"><g transform="translate(1161.104836, 251.530584)"><g><path d="M 78.09375 -249.96875 C 97.875 -249.96875 112.765625 -244.628906 122.765625 -233.953125 C 132.773438 -223.265625 137.78125 -208.144531 137.78125 -188.59375 C 137.78125 -186.320312 137.097656 -184.503906 135.734375 -183.140625 C 134.140625 -181.546875 132.207031 -180.75 129.9375 -180.75 L 107.078125 -180.75 C 104.804688 -180.75 102.988281 -181.546875 101.625 -183.140625 C 100.03125 -184.503906 99.234375 -186.320312 99.234375 -188.59375 L 99.234375 -190.984375 C 99.234375 -199.617188 97.53125 -205.867188 94.125 -209.734375 C 90.71875 -213.367188 85.71875 -215.1875 79.125 -215.1875 C 72.53125 -215.1875 67.523438 -213.367188 64.109375 -209.734375 C 60.472656 -205.867188 58.65625 -199.617188 58.65625 -190.984375 C 58.65625 -186.429688 59.222656 -182.222656 60.359375 -178.359375 C 61.492188 -174.265625 63.425781 -170.171875 66.15625 -166.078125 C 68.882812 -161.984375 72.523438 -157.664062 77.078125 -153.125 C 81.390625 -148.351562 86.84375 -143.238281 93.4375 -137.78125 C 101.851562 -130.726562 109.015625 -124.132812 114.921875 -118 C 120.609375 -111.632812 125.15625 -105.492188 128.5625 -99.578125 C 131.976562 -93.441406 134.484375 -87.304688 136.078125 -81.171875 C 137.441406 -75.023438 138.125 -68.429688 138.125 -61.390625 C 138.125 -41.609375 133.117188 -26.488281 123.109375 -16.03125 C 112.878906 -5.34375 97.757812 0 77.75 0 C 57.75 0 42.628906 -5.34375 32.390625 -16.03125 C 22.160156 -26.488281 17.046875 -41.609375 17.046875 -61.390625 L 17.046875 -68.890625 C 17.046875 -70.929688 17.84375 -72.75 19.4375 -74.34375 C 20.800781 -75.707031 22.503906 -76.390625 24.546875 -76.390625 L 47.75 -76.390625 C 49.789062 -76.390625 51.609375 -75.707031 53.203125 -74.34375 C 54.796875 -72.75 55.59375 -70.929688 55.59375 -68.890625 L 55.59375 -59 C 55.59375 -50.363281 57.410156 -44.222656 61.046875 -40.578125 C 64.679688 -36.941406 69.796875 -35.125 76.390625 -35.125 C 82.984375 -35.125 88.210938 -36.941406 92.078125 -40.578125 C 95.710938 -44.222656 97.53125 -50.363281 97.53125 -59 C 97.53125 -63.320312 96.960938 -67.523438 95.828125 -71.609375 C 94.691406 -75.703125 92.757812 -79.796875 90.03125 -83.890625 C 87.300781 -87.984375 83.773438 -92.414062 79.453125 -97.1875 C 74.910156 -101.738281 69.34375 -106.742188 62.75 -112.203125 C 54.332031 -119.242188 47.285156 -125.835938 41.609375 -131.984375 C 35.921875 -138.117188 31.375 -144.253906 27.96875 -150.390625 C 24.332031 -156.535156 21.832031 -162.675781 20.46875 -168.8125 C 18.875 -174.945312 18.078125 -181.539062 18.078125 -188.59375 C 18.078125 -208.144531 23.078125 -223.265625 33.078125 -233.953125 C 43.078125 -244.628906 58.082031 -249.96875 78.09375 -249.96875 Z M 78.09375 -249.96875 "></path></g></g></g><g fill="#000000" fill-opacity="1"><g transform="translate(1306.040607, 251.530584)"><g><path d="M 155.84375 0 C 151.070312 0 147.890625 -2.5 146.296875 -7.5 C 145.617188 -10 144.710938 -13.640625 143.578125 -18.421875 C 142.210938 -22.960938 140.503906 -29.210938 138.453125 -37.171875 C 136.867188 -42.171875 133.570312 -44.671875 128.5625 -44.671875 L 74 -44.671875 C 69 -44.671875 65.703125 -42.171875 64.109375 -37.171875 C 62.523438 -31.035156 61.160156 -25.46875 60.015625 -20.46875 C 58.648438 -15.457031 57.398438 -11.132812 56.265625 -7.5 C 54.679688 -2.5 51.5 0 46.71875 0 L 27.28125 0 C 24.101562 0 21.488281 -1.363281 19.4375 -4.09375 C 17.394531 -6.59375 16.828125 -9.4375 17.734375 -12.625 C 20.003906 -21.03125 22.847656 -31.710938 26.265625 -44.671875 C 29.671875 -57.398438 33.421875 -71.269531 37.515625 -86.28125 C 41.609375 -101.0625 45.8125 -116.40625 50.125 -132.3125 C 54.21875 -148 58.195312 -163.007812 62.0625 -177.34375 C 65.707031 -191.4375 69.117188 -204.28125 72.296875 -215.875 C 75.253906 -227.238281 77.640625 -236.101562 79.453125 -242.46875 C 79.910156 -244.75 81.050781 -246.570312 82.875 -247.9375 C 84.6875 -249.289062 86.734375 -249.96875 89.015625 -249.96875 L 113.5625 -249.96875 C 115.832031 -249.96875 117.878906 -249.289062 119.703125 -247.9375 C 121.523438 -246.570312 122.660156 -244.75 123.109375 -242.46875 C 131.066406 -212.457031 138.003906 -186.769531 143.921875 -165.40625 C 149.597656 -144.03125 154.367188 -126.066406 158.234375 -111.515625 C 162.097656 -96.960938 165.28125 -85.253906 167.78125 -76.390625 C 170.0625 -67.523438 171.992188 -60.476562 173.578125 -55.25 C 174.941406 -49.789062 176.082031 -45.695312 177 -42.96875 C 177.675781 -40.007812 178.359375 -37.28125 179.046875 -34.78125 C 179.722656 -32.28125 180.515625 -29.441406 181.421875 -26.265625 C 182.109375 -23.078125 183.25 -18.53125 184.84375 -12.625 C 185.75 -9.4375 185.179688 -6.59375 183.140625 -4.09375 C 181.085938 -1.363281 178.472656 0 175.296875 0 Z M 79.796875 -95.828125 C 78.890625 -92.648438 79.457031 -89.804688 81.5 -87.296875 C 83.550781 -84.578125 86.164062 -83.21875 89.34375 -83.21875 L 113.21875 -83.21875 C 116.40625 -83.21875 119.019531 -84.578125 121.0625 -87.296875 C 123.113281 -89.804688 123.679688 -92.648438 122.765625 -95.828125 C 120.953125 -102.191406 119.132812 -109.015625 117.3125 -116.296875 C 115.269531 -123.566406 113.109375 -131.296875 110.828125 -139.484375 C 110.148438 -141.984375 108.898438 -143.914062 107.078125 -145.28125 C 105.265625 -146.414062 103.332031 -146.984375 101.28125 -146.984375 C 99.238281 -146.984375 97.304688 -146.414062 95.484375 -145.28125 C 93.671875 -143.914062 92.421875 -141.984375 91.734375 -139.484375 C 89.691406 -132.203125 87.757812 -124.925781 85.9375 -117.65625 C 83.894531 -110.382812 81.847656 -103.109375 79.796875 -95.828125 Z M 79.796875 -95.828125 "></path></g></g></g><g fill="#000000" fill-opacity="1"><g transform="translate(1471.096717, 251.530584)"><g><path d="M 157.890625 -221.328125 C 157.890625 -218.597656 156.984375 -216.328125 155.171875 -214.515625 C 153.117188 -212.460938 150.617188 -211.4375 147.671875 -211.4375 L 116.625 -211.4375 C 113.90625 -211.4375 111.632812 -210.53125 109.8125 -208.71875 C 107.769531 -206.664062 106.75 -204.273438 106.75 -201.546875 L 106.75 -9.890625 C 106.75 -7.160156 105.835938 -4.882812 104.015625 -3.0625 C 101.960938 -1.019531 99.460938 0 96.515625 0 L 78.09375 0 C 75.363281 0 73.09375 -1.019531 71.28125 -3.0625 C 69.226562 -4.882812 68.203125 -7.160156 68.203125 -9.890625 L 68.203125 -201.546875 C 68.203125 -204.273438 67.296875 -206.664062 65.484375 -208.71875 C 63.429688 -210.53125 61.039062 -211.4375 58.3125 -211.4375 L 26.9375 -211.4375 C 24.207031 -211.4375 21.9375 -212.460938 20.125 -214.515625 C 18.070312 -216.328125 17.046875 -218.597656 17.046875 -221.328125 L 17.046875 -240.09375 C 17.046875 -242.8125 18.070312 -245.195312 20.125 -247.25 C 21.9375 -249.0625 24.207031 -249.96875 26.9375 -249.96875 L 147.671875 -249.96875 C 150.617188 -249.96875 153.117188 -249.0625 155.171875 -247.25 C 156.984375 -245.195312 157.890625 -242.8125 157.890625 -240.09375 Z M 157.890625 -221.328125 "></path></g></g></g><g fill="#000000" fill-opacity="1"><g transform="translate(1646.042715, 251.530584)"><g><path d="M 45.703125 -249.96875 C 48.429688 -249.96875 50.816406 -249.0625 52.859375 -247.25 C 54.679688 -245.195312 55.59375 -242.8125 55.59375 -240.09375 L 55.59375 -9.890625 C 55.59375 -7.160156 54.679688 -4.882812 52.859375 -3.0625 C 50.816406 -1.019531 48.429688 0 45.703125 0 L 26.9375 0 C 24.207031 0 21.9375 -1.019531 20.125 -3.0625 C 18.070312 -4.882812 17.046875 -7.160156 17.046875 -9.890625 L 17.046875 -240.09375 C 17.046875 -242.8125 18.070312 -245.195312 20.125 -247.25 C 21.9375 -249.0625 24.207031 -249.96875 26.9375 -249.96875 Z M 45.703125 -249.96875 "></path></g></g></g><g fill="#000000" fill-opacity="1"><g transform="translate(1718.681042, 251.530584)"><g><path d="M 111.859375 0 C 80.253906 0 55.8125 -13.1875 38.53125 -39.5625 C 24.207031 -61.84375 17.046875 -90.257812 17.046875 -124.8125 C 17.046875 -141.863281 18.867188 -157.664062 22.515625 -172.21875 C 26.148438 -186.539062 31.488281 -199.160156 38.53125 -210.078125 C 55.8125 -236.671875 80.253906 -249.96875 111.859375 -249.96875 C 143.460938 -249.96875 167.90625 -236.671875 185.1875 -210.078125 C 192.226562 -199.160156 197.566406 -186.539062 201.203125 -172.21875 C 204.847656 -157.664062 206.671875 -141.863281 206.671875 -124.8125 C 206.671875 -90.257812 199.507812 -61.84375 185.1875 -39.5625 C 167.90625 -13.1875 143.460938 0 111.859375 0 Z M 111.859375 -211.4375 C 103.222656 -211.4375 95.832031 -209.847656 89.6875 -206.671875 C 83.550781 -203.253906 78.4375 -198.929688 74.34375 -193.703125 C 70.019531 -188.242188 66.609375 -182.332031 64.109375 -175.96875 C 61.609375 -169.375 59.789062 -162.894531 58.65625 -156.53125 C 57.289062 -149.9375 56.492188 -143.910156 56.265625 -138.453125 C 55.816406 -132.773438 55.59375 -128.226562 55.59375 -124.8125 C 55.59375 -121.40625 55.816406 -116.972656 56.265625 -111.515625 C 56.492188 -105.828125 57.289062 -99.800781 58.65625 -93.4375 C 59.789062 -87.070312 61.609375 -80.707031 64.109375 -74.34375 C 66.609375 -67.75 70.019531 -61.835938 74.34375 -56.609375 C 78.4375 -51.148438 83.550781 -46.832031 89.6875 -43.65625 C 95.832031 -40.238281 103.222656 -38.53125 111.859375 -38.53125 C 120.492188 -38.53125 127.882812 -40.238281 134.03125 -43.65625 C 140.164062 -46.832031 145.394531 -51.148438 149.71875 -56.609375 C 153.800781 -61.835938 157.097656 -67.75 159.609375 -74.34375 C 162.109375 -80.707031 164.039062 -87.070312 165.40625 -93.4375 C 166.539062 -99.800781 167.332031 -105.828125 167.78125 -111.515625 C 168.007812 -116.972656 168.125 -121.40625 168.125 -124.8125 C 168.125 -128.226562 168.007812 -132.773438 167.78125 -138.453125 C 167.332031 -143.910156 166.539062 -149.9375 165.40625 -156.53125 C 164.039062 -162.894531 162.109375 -169.375 159.609375 -175.96875 C 157.097656 -182.332031 153.800781 -188.242188 149.71875 -193.703125 C 145.394531 -198.929688 140.164062 -203.253906 134.03125 -206.671875 C 127.882812 -209.847656 120.492188 -211.4375 111.859375 -211.4375 Z M 111.859375 -211.4375 "></path></g></g></g><g fill="#000000" fill-opacity="1"><g transform="translate(1942.393741, 251.530584)"><g><path d="M 166.078125 -249.96875 C 168.804688 -249.96875 171.195312 -249.0625 173.25 -247.25 C 175.0625 -245.195312 175.96875 -242.8125 175.96875 -240.09375 L 175.96875 -9.890625 C 175.96875 -7.160156 175.0625 -4.882812 173.25 -3.0625 C 171.195312 -1.019531 168.804688 0 166.078125 0 L 139.828125 0 C 135.734375 0 132.773438 -1.929688 130.953125 -5.796875 L 62.75 -151.765625 C 62.070312 -153.578125 60.707031 -154.257812 58.65625 -153.8125 C 56.613281 -153.351562 55.59375 -152.097656 55.59375 -150.046875 L 55.59375 -9.890625 C 55.59375 -7.160156 54.679688 -4.882812 52.859375 -3.0625 C 50.816406 -1.019531 48.316406 0 45.359375 0 L 26.9375 0 C 24.207031 0 21.9375 -1.019531 20.125 -3.0625 C 18.070312 -4.882812 17.046875 -7.160156 17.046875 -9.890625 L 17.046875 -240.09375 C 17.046875 -242.8125 18.070312 -245.195312 20.125 -247.25 C 21.9375 -249.0625 24.207031 -249.96875 26.9375 -249.96875 L 53.203125 -249.96875 C 57.523438 -249.96875 60.476562 -248.035156 62.0625 -244.171875 L 130.28125 -98.21875 C 130.957031 -96.394531 132.429688 -95.710938 134.703125 -96.171875 C 136.523438 -96.628906 137.4375 -97.878906 137.4375 -99.921875 L 137.4375 -240.09375 C 137.4375 -242.8125 138.457031 -245.195312 140.5 -247.25 C 142.550781 -249.0625 144.941406 -249.96875 147.671875 -249.96875 Z M 166.078125 -249.96875 "></path></g></g></g></g></g></g></g></g></g></svg> 